<svg width="14" height="14" viewBox="0 0 14 14" fill="none" xmlns="http://www.w3.org/2000/svg">
<path d="M3.25 7C3.25 6.80109 3.32902 6.61032 3.46967 6.46967C3.61032 6.32902 3.80109 6.25 4 6.25H6.25V4C6.25 3.80109 6.32902 3.61032 6.46967 3.46967C6.61032 3.32902 6.80109 3.25 7 3.25C7.19891 3.25 7.38968 3.32902 7.53033 3.46967C7.67098 3.61032 7.75 3.80109 7.75 4V6.25H10C10.1989 6.25 10.3897 6.32902 10.5303 6.46967C10.671 6.61032 10.75 6.80109 10.75 7C10.75 7.19891 10.671 7.38968 10.5303 7.53033C10.3897 7.67098 10.1989 7.75 10 7.75H7.75V10C7.75 10.1989 7.67098 10.3897 7.53033 10.5303C7.38968 10.671 7.19891 10.75 7 10.75C6.80109 10.75 6.61032 10.671 6.46967 10.5303C6.32902 10.3897 6.25 10.1989 6.25 10V7.75H4C3.80109 7.75 3.61032 7.67098 3.46967 7.53033C3.32902 7.38968 3.25 7.19891 3.25 7Z" fill="#2563EB"/>
<path fill-rule="evenodd" clip-rule="evenodd" d="M7 14C7.91925 14 8.82951 13.8189 9.67878 13.4672C10.5281 13.1154 11.2997 12.5998 11.9497 11.9497C12.5998 11.2997 13.1154 10.5281 13.4672 9.67878C13.8189 8.82951 14 7.91925 14 7C14 6.08075 13.8189 5.1705 13.4672 4.32122C13.1154 3.47194 12.5998 2.70026 11.9497 2.05025C11.2997 1.40024 10.5281 0.884626 9.67878 0.532843C8.82951 0.18106 7.91925 -1.36979e-08 7 0C5.14348 2.76642e-08 3.36301 0.737498 2.05025 2.05025C0.737498 3.36301 0 5.14348 0 7C0 8.85652 0.737498 10.637 2.05025 11.9497C3.36301 13.2625 5.14348 14 7 14ZM7 12.5C8.45869 12.5 9.85764 11.9205 10.8891 10.8891C11.9205 9.85764 12.5 8.45869 12.5 7C12.5 5.54131 11.9205 4.14236 10.8891 3.11091C9.85764 2.07946 8.45869 1.5 7 1.5C5.54131 1.5 4.14236 2.07946 3.11091 3.11091C2.07946 4.14236 1.5 5.54131 1.5 7C1.5 8.45869 2.07946 9.85764 3.11091 10.8891C4.14236 11.9205 5.54131 12.5 7 12.5Z" fill="#2563EB"/>
</svg>
