<svg width="14" height="14" viewBox="0 0 14 14" fill="none" xmlns="http://www.w3.org/2000/svg">
<path fill-rule="evenodd" clip-rule="evenodd" d="M0 2.42308C0 1.78044 0.255288 1.16412 0.709703 0.709703C1.16412 0.255288 1.78044 0 2.42308 0H5.38462C5.67023 0 5.94415 0.113461 6.14611 0.315423C6.34808 0.517386 6.46154 0.791305 6.46154 1.07692V5.38462C6.46154 5.67023 6.34808 5.94415 6.14611 6.14611C5.94415 6.34808 5.67023 6.46154 5.38462 6.46154H1.07692C0.791305 6.46154 0.517386 6.34808 0.315423 6.14611C0.113461 5.94415 0 5.67023 0 5.38462V2.42308ZM2.42308 1.61538C2.20886 1.61538 2.00342 1.70048 1.85195 1.85195C1.70048 2.00342 1.61538 2.20886 1.61538 2.42308V4.84615H4.84615V1.61538H2.42308Z" fill="#2563EB"/>
<path fill-rule="evenodd" clip-rule="evenodd" d="M0 11.5769C0 12.2196 0.255288 12.8359 0.709703 13.2903C1.16412 13.7447 1.78044 14 2.42308 14H5.38462C5.67023 14 5.94415 13.8865 6.14611 13.6846C6.34808 13.4826 6.46154 13.2087 6.46154 12.9231V8.61538C6.46154 8.32977 6.34808 8.05585 6.14611 7.85388C5.94415 7.65192 5.67023 7.53846 5.38462 7.53846H1.07692C0.791305 7.53846 0.517386 7.65192 0.315423 7.85388C0.113461 8.05585 0 8.32977 0 8.61538V11.5769ZM2.42308 12.3846C2.20886 12.3846 2.00342 12.2995 1.85195 12.148C1.70048 11.9966 1.61538 11.7911 1.61538 11.5769V9.15384H4.84615V12.3846H2.42308Z" fill="#2563EB"/>
<path fill-rule="evenodd" clip-rule="evenodd" d="M11.5769 14C12.2196 14 12.8359 13.7447 13.2903 13.2903C13.7447 12.8359 14 12.2196 14 11.5769V8.61538C14 8.32977 13.8865 8.05585 13.6846 7.85388C13.4826 7.65192 13.2087 7.53846 12.9231 7.53846H8.61538C8.32976 7.53846 8.05584 7.65192 7.85388 7.85388C7.65191 8.05585 7.53845 8.32977 7.53845 8.61538V12.9231C7.53845 13.2087 7.65191 13.4826 7.85388 13.6846C8.05584 13.8865 8.32976 14 8.61538 14H11.5769ZM12.3846 11.5769C12.3846 11.7911 12.2995 11.9966 12.148 12.148C11.9966 12.2995 11.7911 12.3846 11.5769 12.3846H9.15384V9.15384H12.3846V11.5769Z" fill="#2563EB"/>
<path d="M10.7692 0C10.9834 0 11.1889 0.0850958 11.3403 0.236567C11.4918 0.388039 11.5769 0.593479 11.5769 0.807692V2.42308H13.1923C13.4065 2.42308 13.612 2.50817 13.7634 2.65964C13.9149 2.81112 14 3.01656 14 3.23077C14 3.44498 13.9149 3.65042 13.7634 3.80189C13.612 3.95337 13.4065 4.03846 13.1923 4.03846H11.5769V5.65385C11.5769 5.86806 11.4918 6.0735 11.3403 6.22497C11.1889 6.37644 10.9834 6.46154 10.7692 6.46154C10.555 6.46154 10.3496 6.37644 10.1981 6.22497C10.0466 6.0735 9.96153 5.86806 9.96153 5.65385V4.03846H8.34614C8.13193 4.03846 7.92649 3.95337 7.77502 3.80189C7.62355 3.65042 7.53845 3.44498 7.53845 3.23077C7.53845 3.01656 7.62355 2.81112 7.77502 2.65964C7.92649 2.50817 8.13193 2.42308 8.34614 2.42308H9.96153V0.807692C9.96153 0.593479 10.0466 0.388039 10.1981 0.236567C10.3496 0.0850958 10.555 0 10.7692 0Z" fill="#2563EB"/>
</svg>
