<svg width="12" height="11" viewBox="0 0 12 11" fill="none" xmlns="http://www.w3.org/2000/svg">
<path d="M3.21429 0C2.3618 0 1.54424 0.338647 0.941442 0.941443C0.338647 1.54424 0 2.3618 0 3.21429V5.35714C0 6.20962 0.338647 7.02719 0.941442 7.62999C1.54424 8.23278 2.3618 8.57143 3.21429 8.57143H4.5C4.6705 8.57143 4.83401 8.5037 4.95457 8.38314C5.07513 8.26258 5.14286 8.09907 5.14286 7.92857C5.14286 7.75808 5.07513 7.59456 4.95457 7.474C4.83401 7.35344 4.6705 7.28571 4.5 7.28571H3.21429C2.7028 7.28571 2.21226 7.08253 1.85058 6.72085C1.4889 6.35917 1.28571 5.86863 1.28571 5.35714V3.21429C1.28571 2.7028 1.4889 2.21226 1.85058 1.85058C2.21226 1.4889 2.7028 1.28571 3.21429 1.28571H8.78571C9.2972 1.28571 9.78774 1.4889 10.1494 1.85058C10.5111 2.21226 10.7143 2.7028 10.7143 3.21429V3.64286C10.7143 3.81335 10.782 3.97687 10.9026 4.09743C11.0231 4.21798 11.1866 4.28571 11.3571 4.28571C11.5276 4.28571 11.6912 4.21798 11.8117 4.09743C11.9323 3.97687 12 3.81335 12 3.64286V3.21429C12 2.3618 11.6614 1.54424 11.0586 0.941443C10.4558 0.338647 9.6382 0 8.78571 0H3.21429Z" fill="black"/>
<path d="M5.54063 3.82628C5.62649 3.74064 5.73483 3.68102 5.85313 3.65433C5.97144 3.62763 6.09488 3.63495 6.2092 3.67543L11.3606 5.49257C11.4631 5.52867 11.5548 5.59017 11.6271 5.67133C11.6994 5.75249 11.75 5.85065 11.774 5.95664C11.7981 6.06264 11.7949 6.173 11.7647 6.27742C11.7345 6.38183 11.6784 6.47689 11.6015 6.55371L10.5412 7.61486L11.7532 8.82686C11.8736 8.94739 11.9412 9.11078 11.9412 9.28114C11.9412 9.4515 11.8736 9.61489 11.7532 9.73543L11.4506 10.0389C11.3301 10.1592 11.1667 10.2269 10.9963 10.2269C10.826 10.2269 10.6626 10.1592 10.5421 10.0389L9.3292 8.82686L8.26806 9.888C8.19122 9.96469 8.09622 10.0207 7.99191 10.0507C7.8876 10.0808 7.77737 10.0839 7.67151 10.0599C7.56565 10.0358 7.4676 9.98538 7.38651 9.91321C7.30542 9.84103 7.24393 9.7495 7.20777 9.64714L5.38977 4.49571C5.34929 4.38139 5.34198 4.25795 5.36867 4.13965C5.39536 4.02134 5.45498 3.913 5.54063 3.82714V3.82628Z" fill="black"/>
</svg>
