<svg width="13" height="13" viewBox="0 0 13 13" fill="none" xmlns="http://www.w3.org/2000/svg">
<path fill-rule="evenodd" clip-rule="evenodd" d="M1.717 2.7C1.52 2.886 1.5 3.005 1.5 3.05C1.5 3.095 1.52 3.214 1.717 3.4C1.917 3.589 2.245 3.793 2.713 3.98C3.644 4.353 4.983 4.6 6.5 4.6C8.017 4.6 9.355 4.353 10.287 3.98C10.755 3.793 11.084 3.589 11.283 3.4C11.48 3.214 11.5 3.095 11.5 3.05C11.5 3.005 11.48 2.886 11.283 2.7C11.083 2.511 10.755 2.307 10.287 2.12C9.355 1.747 8.017 1.5 6.5 1.5C4.983 1.5 3.644 1.747 2.713 2.12C2.245 2.307 1.916 2.511 1.717 2.7ZM11.5 5.067C11.2876 5.18189 11.0685 5.28407 10.844 5.373C9.695 5.833 8.159 6.1 6.5 6.1C4.841 6.1 3.305 5.832 2.156 5.373C1.93147 5.28408 1.71242 5.1819 1.5 5.067V6.48C1.5 6.525 1.52 6.643 1.717 6.83C1.917 7.019 2.245 7.223 2.713 7.41C3.644 7.783 4.983 8.03 6.5 8.03C8.017 8.03 9.355 7.783 10.287 7.41C10.755 7.223 11.084 7.019 11.283 6.83C11.48 6.643 11.5 6.525 11.5 6.48V5.067ZM11.5 8.497C11.2876 8.61189 11.0685 8.71407 10.844 8.803C9.695 9.263 8.159 9.53 6.5 9.53C4.841 9.53 3.305 9.262 2.156 8.803C1.93147 8.71408 1.71242 8.6119 1.5 8.497V9.95C1.5 9.995 1.52 10.114 1.717 10.3C1.917 10.489 2.245 10.693 2.713 10.88C3.644 11.253 4.983 11.5 6.5 11.5C8.017 11.5 9.355 11.253 10.287 10.88C10.755 10.693 11.084 10.489 11.283 10.3C11.48 10.113 11.5 9.995 11.5 9.95V8.497ZM13 9.95C13 10.54 12.698 11.027 12.313 11.39C11.931 11.752 11.417 12.044 10.844 12.273C9.695 12.733 8.159 13 6.5 13C4.841 13 3.305 12.732 2.156 12.273C1.583 12.043 1.069 11.753 0.686 11.39C0.302 11.027 0 10.54 0 9.95V3.05C0 2.46 0.302 1.973 0.687 1.61C1.069 1.248 1.583 0.956 2.156 0.727C3.305 0.267 4.841 0 6.5 0C8.159 0 9.695 0.268 10.844 0.727C11.417 0.957 11.931 1.247 12.314 1.61C12.698 1.973 13 2.46 13 3.05V9.95Z" fill="black"/>
</svg>
