<svg width="20" height="20" viewBox="0 0 20 20" fill="none" xmlns="http://www.w3.org/2000/svg">
<path d="M6 10C6 10.3978 5.84196 10.7794 5.56066 11.0607C5.27936 11.342 4.89782 11.5 4.5 11.5C4.10218 11.5 3.72064 11.342 3.43934 11.0607C3.15804 10.7794 3 10.3978 3 10C3 9.60218 3.15804 9.22064 3.43934 8.93934C3.72064 8.65804 4.10218 8.5 4.5 8.5C4.89782 8.5 5.27936 8.65804 5.56066 8.93934C5.84196 9.22064 6 9.60218 6 10Z" fill="#4A4A4A"/>
<path d="M11.5 10C11.5 10.3978 11.342 10.7794 11.0607 11.0607C10.7794 11.342 10.3978 11.5 10 11.5C9.60218 11.5 9.22064 11.342 8.93934 11.0607C8.65804 10.7794 8.5 10.3978 8.5 10C8.5 9.60218 8.65804 9.22064 8.93934 8.93934C9.22064 8.65804 9.60218 8.5 10 8.5C10.3978 8.5 10.7794 8.65804 11.0607 8.93934C11.342 9.22064 11.5 9.60218 11.5 10Z" fill="#4A4A4A"/>
<path d="M17 10C17 10.3978 16.842 10.7794 16.5607 11.0607C16.2794 11.342 15.8978 11.5 15.5 11.5C15.1022 11.5 14.7206 11.342 14.4393 11.0607C14.158 10.7794 14 10.3978 14 10C14 9.60218 14.158 9.22064 14.4393 8.93934C14.7206 8.65804 15.1022 8.5 15.5 8.5C15.8978 8.5 16.2794 8.65804 16.5607 8.93934C16.842 9.22064 17 9.60218 17 10Z" fill="#4A4A4A"/>
</svg>
