<svg width="16" height="16" viewBox="0 0 16 16" fill="none" xmlns="http://www.w3.org/2000/svg">
<path fill-rule="evenodd" clip-rule="evenodd" d="M11 8C11 8.79565 10.6839 9.55871 10.1213 10.1213C9.55871 10.6839 8.79565 11 8 11C7.20435 11 6.44129 10.6839 5.87868 10.1213C5.31607 9.55871 5 8.79565 5 8C5 7.20435 5.31607 6.44129 5.87868 5.87868C6.44129 5.31607 7.20435 5 8 5C8.79565 5 9.55871 5.31607 10.1213 5.87868C10.6839 6.44129 11 7.20435 11 8ZM9.5 8C9.49987 8.39796 9.34165 8.77956 9.06016 9.06087C8.77867 9.34217 8.39696 9.50013 7.999 9.5C7.60104 9.49987 7.21944 9.34165 6.93813 9.06016C6.65683 8.77867 6.49887 8.39696 6.499 7.999C6.49913 7.60104 6.65735 7.21944 6.93884 6.93813C7.22033 6.65683 7.60204 6.49887 8 6.499C8.39796 6.49913 8.77956 6.65735 9.06087 6.93884C9.34217 7.22033 9.50013 7.60204 9.5 8Z" fill="black"/>
<path fill-rule="evenodd" clip-rule="evenodd" d="M8 2C5.524 2 3.652 3.23 2.423 4.532C1.87602 5.11012 1.4055 5.75607 1.023 6.454C0.879411 6.71704 0.755732 6.99048 0.653 7.272C0.571 7.499 0.5 7.76 0.5 8C0.5 8.24 0.571 8.501 0.652 8.728C0.74 8.974 0.865 9.252 1.023 9.546C1.34 10.133 1.807 10.816 2.423 11.468C3.652 12.77 5.523 14 8 14C10.477 14 12.348 12.77 13.577 11.468C14.124 10.8899 14.5945 10.2439 14.977 9.546C15.135 9.252 15.26 8.974 15.347 8.728C15.429 8.501 15.5 8.24 15.5 8C15.5 7.76 15.429 7.499 15.348 7.272C15.2449 6.99045 15.1209 6.71701 14.977 6.454C14.5945 5.75607 14.124 5.11012 13.577 4.532C12.348 3.23 10.477 2 8 2ZM2.001 8.002V7.998C2.005 7.978 2.018 7.908 2.065 7.775C2.123 7.614 2.215 7.406 2.343 7.167C2.66301 6.58433 3.0562 6.04496 3.513 5.562C4.555 4.458 6.058 3.5 8 3.5C9.942 3.5 11.445 4.458 12.486 5.562C13.006 6.112 13.398 6.688 13.656 7.167C13.786 7.407 13.877 7.614 13.935 7.775C13.982 7.907 13.995 7.978 13.999 7.998V8.002C13.995 8.022 13.982 8.092 13.935 8.225C13.877 8.386 13.785 8.594 13.657 8.833C13.337 9.41567 12.9438 9.95504 12.487 10.438C11.445 11.542 9.942 12.5 8 12.5C6.058 12.5 4.555 11.542 3.514 10.438C3.05635 9.95575 2.66307 9.41627 2.344 8.833C2.23604 8.63754 2.14279 8.43431 2.065 8.225C2.018 8.093 2.005 8.022 2.001 8.002Z" fill="black"/>
</svg>
