<svg width="20" height="20" viewBox="0 0 20 20" fill="none" xmlns="http://www.w3.org/2000/svg">
<g clip-path="url(#clip0_142_13)">
<path d="M10 20C15.5228 20 20 15.5228 20 10C20 4.47715 15.5228 0 10 0C4.47715 0 0 4.47715 0 10C0 15.5228 4.47715 20 10 20Z" fill="#4360FB"/>
<path d="M13.2516 3.06934H11.0364C9.72179 3.06934 8.25958 3.62224 8.25958 5.52781C8.266 6.19178 8.25958 6.82767 8.25958 7.54333H6.73877V9.96339H8.30665V16.9304H11.1877V9.91742H13.0893L13.2614 7.53653H11.1381C11.1381 7.53653 11.1428 6.47742 11.1381 6.16985C11.1381 5.41681 11.9216 5.45993 11.9688 5.45993C12.3416 5.45993 13.0666 5.46102 13.2527 5.45993V3.06934H13.2516Z" fill="white"/>
</g>
<defs>
<clipPath id="clip0_142_13">
<rect width="20" height="20" fill="white"/>
</clipPath>
</defs>
</svg>
