<svg width="20" height="20" viewBox="0 0 20 20" fill="none" xmlns="http://www.w3.org/2000/svg">
<g clip-path="url(#clip0_142_18)">
<path d="M19.7618 10.1873C19.7618 9.36792 19.6954 8.76998 19.5515 8.1499H10.1948V11.8482H15.687C15.5763 12.7673 14.9783 14.1514 13.6496 15.0815L13.6309 15.2053L16.5893 17.4972L16.7943 17.5176C18.6767 15.7791 19.7618 13.2213 19.7618 10.1873Z" fill="#4285F4"/>
<path d="M10.1947 19.9312C12.8854 19.9312 15.1442 19.0453 16.7941 17.5173L13.6494 15.0812C12.8079 15.6681 11.6784 16.0777 10.1947 16.0777C7.55932 16.0777 5.3226 14.3393 4.52527 11.9365L4.4084 11.9464L1.33222 14.3271L1.29199 14.439C2.93077 17.6944 6.29695 19.9312 10.1947 19.9312Z" fill="#34A853"/>
<path d="M4.52526 11.9368C4.31488 11.3167 4.19313 10.6523 4.19313 9.96583C4.19313 9.27927 4.31488 8.61492 4.51419 7.99484L4.50862 7.86278L1.39389 5.44385L1.29198 5.49232C0.616561 6.84324 0.229004 8.36026 0.229004 9.96583C0.229004 11.5714 0.616561 13.0884 1.29198 14.4393L4.52526 11.9368Z" fill="#FBBC05"/>
<path d="M10.1947 3.85336C12.066 3.85336 13.3283 4.66168 14.048 5.33718L16.8605 2.59107C15.1332 0.985496 12.8853 0 10.1947 0C6.29695 0 2.93077 2.23672 1.29199 5.49214L4.51421 7.99466C5.3226 5.59183 7.55932 3.85336 10.1947 3.85336Z" fill="#EB4335"/>
</g>
<defs>
<clipPath id="clip0_142_18">
<rect width="20" height="20" fill="white"/>
</clipPath>
</defs>
</svg>
