<svg width="13" height="13" viewBox="0 0 13 13" fill="none" xmlns="http://www.w3.org/2000/svg">
<path fill-rule="evenodd" clip-rule="evenodd" d="M0 1.75C0 0.784 0.784 0 1.75 0H11.25C12.216 0 13 0.784 13 1.75V3.25C13 3.71413 12.8156 4.15925 12.4874 4.48744C12.1592 4.81563 11.7141 5 11.25 5H1.75C1.28587 5 0.840752 4.81563 0.512563 4.48744C0.184375 4.15925 0 3.71413 0 3.25V1.75ZM1.75 1.5C1.6837 1.5 1.62011 1.52634 1.57322 1.57322C1.52634 1.62011 1.5 1.6837 1.5 1.75V3.25C1.5 3.388 1.612 3.5 1.75 3.5H11.25C11.3163 3.5 11.3799 3.47366 11.4268 3.42678C11.4737 3.37989 11.5 3.3163 11.5 3.25V1.75C11.5 1.6837 11.4737 1.62011 11.4268 1.57322C11.3799 1.52634 11.3163 1.5 11.25 1.5H1.75Z" fill="black"/>
<path d="M0 7.75C0 6.784 0.784 6 1.75 6H2.25C2.44891 6 2.63968 6.07902 2.78033 6.21967C2.92098 6.36032 3 6.55109 3 6.75C3 6.94891 2.92098 7.13968 2.78033 7.28033C2.63968 7.42098 2.44891 7.5 2.25 7.5H1.75C1.6837 7.5 1.62011 7.52634 1.57322 7.57322C1.52634 7.62011 1.5 7.6837 1.5 7.75V8.25C1.5 8.44891 1.42098 8.63968 1.28033 8.78033C1.13968 8.92098 0.948912 9 0.75 9C0.551088 9 0.360322 8.92098 0.21967 8.78033C0.0790175 8.63968 0 8.44891 0 8.25V7.75Z" fill="black"/>
<path d="M0 11.25C0 12.216 0.784 13 1.75 13H2.25C2.44891 13 2.63968 12.921 2.78033 12.7803C2.92098 12.6397 3 12.4489 3 12.25C3 12.0511 2.92098 11.8603 2.78033 11.7197C2.63968 11.579 2.44891 11.5 2.25 11.5H1.75C1.6837 11.5 1.62011 11.4737 1.57322 11.4268C1.52634 11.3799 1.5 11.3163 1.5 11.25V10.75C1.5 10.5511 1.42098 10.3603 1.28033 10.2197C1.13968 10.079 0.948912 10 0.75 10C0.551088 10 0.360322 10.079 0.21967 10.2197C0.0790175 10.3603 0 10.5511 0 10.75V11.25Z" fill="black"/>
<path d="M11.25 6C12.216 6 13 6.784 13 7.75V8.25C13 8.44891 12.921 8.63968 12.7803 8.78033C12.6397 8.92098 12.4489 9 12.25 9C12.0511 9 11.8603 8.92098 11.7197 8.78033C11.579 8.63968 11.5 8.44891 11.5 8.25V7.75C11.5 7.6837 11.4737 7.62011 11.4268 7.57322C11.3799 7.52634 11.3163 7.5 11.25 7.5H10.75C10.5511 7.5 10.3603 7.42098 10.2197 7.28033C10.079 7.13968 10 6.94891 10 6.75C10 6.55109 10.079 6.36032 10.2197 6.21967C10.3603 6.07902 10.5511 6 10.75 6H11.25Z" fill="black"/>
<path d="M11.25 13C11.7141 13 12.1592 12.8156 12.4874 12.4874C12.8156 12.1592 13 11.7141 13 11.25V10.75C13 10.5511 12.921 10.3603 12.7803 10.2197C12.6397 10.079 12.4489 10 12.25 10C12.0511 10 11.8603 10.079 11.7197 10.2197C11.579 10.3603 11.5 10.5511 11.5 10.75V11.25C11.5 11.3163 11.4737 11.3799 11.4268 11.4268C11.3799 11.4737 11.3163 11.5 11.25 11.5H10.75C10.5511 11.5 10.3603 11.579 10.2197 11.7197C10.079 11.8603 10 12.0511 10 12.25C10 12.4489 10.079 12.6397 10.2197 12.7803C10.3603 12.921 10.5511 13 10.75 13H11.25Z" fill="black"/>
<path d="M8.25 6.75C8.25 6.94891 8.17098 7.13968 8.03033 7.28033C7.88968 7.42098 7.69891 7.5 7.5 7.5H5.5C5.30109 7.5 5.11032 7.42098 4.96967 7.28033C4.82902 7.13968 4.75 6.94891 4.75 6.75C4.75 6.55109 4.82902 6.36032 4.96967 6.21967C5.11032 6.07902 5.30109 6 5.5 6H7.5C7.69891 6 7.88968 6.07902 8.03033 6.21967C8.17098 6.36032 8.25 6.55109 8.25 6.75Z" fill="black"/>
<path d="M7.5 13C7.69891 13 7.88968 12.921 8.03033 12.7803C8.17098 12.6397 8.25 12.4489 8.25 12.25C8.25 12.0511 8.17098 11.8603 8.03033 11.7197C7.88968 11.579 7.69891 11.5 7.5 11.5H5.5C5.30109 11.5 5.11032 11.579 4.96967 11.7197C4.82902 11.8603 4.75 12.0511 4.75 12.25C4.75 12.4489 4.82902 12.6397 4.96967 12.7803C5.11032 12.921 5.30109 13 5.5 13H7.5Z" fill="black"/>
</svg>
