<svg width="16" height="16" viewBox="0 0 16 16" fill="none" xmlns="http://www.w3.org/2000/svg">
<path d="M9.977 2.7511C9.33187 2.58102 8.66716 2.49663 8 2.5001C5.556 2.5001 3.804 3.5451 2.675 4.7331C2.17366 5.25806 1.75459 5.85582 1.432 6.5061C1.172 7.0381 1 7.5821 1 8.0001C1 8.4181 1.171 8.9621 1.432 9.4941C1.604 9.8471 1.832 10.2271 2.119 10.6091L3.193 9.5351C3.03622 9.3134 2.89776 9.07929 2.779 8.8351C2.558 8.3821 2.5 8.0821 2.5 8.0001C2.5 7.9181 2.558 7.6181 2.779 7.1651C3.03455 6.65235 3.36594 6.18105 3.762 5.7671C4.652 4.8301 6.026 4.0001 8 4.0001C8.24 4.0001 8.471 4.0121 8.693 4.0361L9.977 2.7511Z" fill="black"/>
<path fill-rule="evenodd" clip-rule="evenodd" d="M2.25 12.6001C2.11832 12.7431 2.04732 12.9317 2.05197 13.1261C2.05663 13.3204 2.13657 13.5054 2.27494 13.6419C2.41332 13.7785 2.59931 13.856 2.79371 13.8581C2.98811 13.8602 3.17573 13.7867 3.317 13.6531L4.379 12.5921C5.354 13.1351 6.556 13.5001 8 13.5001C10.45 13.5001 12.142 12.4501 13.24 11.2581C14.318 10.0881 14.828 8.78211 14.978 8.18211C15.0079 8.06262 15.0079 7.9376 14.978 7.81811C14.828 7.21811 14.318 5.91211 13.24 4.74211C13.0787 4.56619 12.9084 4.39864 12.73 4.24011L13.653 3.31711C13.7231 3.24797 13.7789 3.16569 13.8173 3.07498C13.8556 2.98426 13.8757 2.88689 13.8764 2.78841C13.8771 2.68994 13.8584 2.59229 13.8213 2.50104C13.7843 2.40979 13.7296 2.32673 13.6605 2.25661C13.5914 2.18648 13.5091 2.13066 13.4184 2.09233C13.3277 2.054 13.2303 2.03392 13.1318 2.03322C13.0333 2.03253 12.9357 2.05123 12.8444 2.08827C12.7532 2.12532 12.6701 2.17997 12.6 2.24911L12.592 2.25711L2.257 12.5931L2.25 12.6001ZM8 12.0001C7.022 12.0001 6.191 11.7961 5.494 11.4771L6.602 10.3681C7.12723 10.6785 7.74078 10.8055 8.34607 10.729C8.95135 10.6524 9.51401 10.3768 9.94548 9.94547C10.3769 9.51412 10.6527 8.95153 10.7294 8.34627C10.8061 7.741 10.6793 7.12742 10.369 6.60211L11.667 5.30311C11.8363 5.45044 11.993 5.60211 12.137 5.75811C12.7302 6.4061 13.1836 7.16928 13.469 8.00011C13.1836 8.83094 12.7302 9.59411 12.137 10.2421C11.277 11.1751 9.967 12.0001 8 12.0001ZM8 9.25011C7.91334 9.24944 7.82867 9.24078 7.746 9.22411L9.224 7.74611C9.26174 7.92794 9.25848 8.1159 9.21448 8.29632C9.17047 8.47674 9.08681 8.64509 8.96959 8.78913C8.85237 8.93316 8.70453 9.04927 8.53681 9.12901C8.36909 9.20875 8.18571 9.25012 8 9.25011Z" fill="black"/>
</svg>
