<svg width="13" height="13" viewBox="0 0 13 13" fill="none" xmlns="http://www.w3.org/2000/svg">
<path d="M9 5.5C9.39782 5.5 9.77936 5.34196 10.0607 5.06066C10.342 4.77936 10.5 4.39782 10.5 4C10.5 3.60218 10.342 3.22064 10.0607 2.93934C9.77936 2.65804 9.39782 2.5 9 2.5C8.60218 2.5 8.22064 2.65804 7.93934 2.93934C7.65804 3.22064 7.5 3.60218 7.5 4C7.5 4.39782 7.65804 4.77936 7.93934 5.06066C8.22064 5.34196 8.60218 5.5 9 5.5Z" fill="black"/>
<path fill-rule="evenodd" clip-rule="evenodd" d="M5.518 0H7.482C8.295 0 8.951 -1.86265e-08 9.482 0.043C10.028 0.088 10.508 0.183 10.952 0.409C11.6581 0.768372 12.2322 1.34214 12.592 2.048C12.818 2.492 12.912 2.972 12.957 3.518C13 4.049 13 4.705 13 5.518V7.482C13 8.295 13 8.951 12.957 9.482C12.912 10.028 12.817 10.508 12.591 10.952C12.2316 11.6581 11.6579 12.2322 10.952 12.592C10.508 12.818 10.028 12.912 9.482 12.957C8.951 13 8.295 13 7.482 13H5.518C4.705 13 4.049 13 3.518 12.957C2.972 12.912 2.492 12.817 2.048 12.591C1.34192 12.2316 0.767803 11.6579 0.408 10.952C0.182 10.508 0.088 10.028 0.043 9.482C-1.86265e-08 8.951 0 8.295 0 7.482V5.518C0 4.705 -1.86265e-08 4.049 0.043 3.518C0.088 2.972 0.183 2.492 0.409 2.048C0.768372 1.34192 1.34214 0.767803 2.048 0.408C2.492 0.182 2.972 0.088 3.518 0.043C4.049 -1.86265e-08 4.705 0 5.518 0ZM3.641 1.538C3.187 1.575 2.926 1.645 2.729 1.745C2.30526 1.96078 1.96078 2.30526 1.745 2.729C1.645 2.926 1.575 3.187 1.538 3.641C1.501 4.103 1.5 4.698 1.5 5.55V6.978L2.223 6.111C2.37868 5.92417 2.5716 5.77184 2.78944 5.66373C3.00727 5.55561 3.24526 5.49409 3.4882 5.48308C3.73114 5.47207 3.97371 5.51182 4.20043 5.59979C4.42716 5.68776 4.63306 5.82202 4.805 5.994L7.5 8.689L8.68 7.509C8.85409 7.33501 9.06292 7.19969 9.29285 7.11189C9.52279 7.02409 9.76866 6.98578 10.0144 6.99947C10.2602 7.01315 10.5003 7.07852 10.719 7.1913C10.9378 7.30409 11.1303 7.46175 11.284 7.654L11.5 7.924V5.55C11.5 4.698 11.5 4.103 11.462 3.64C11.425 3.187 11.355 2.926 11.255 2.729C11.0392 2.30526 10.6947 1.96078 10.271 1.745C10.074 1.645 9.813 1.575 9.359 1.538C8.897 1.501 8.303 1.5 7.45 1.5H5.55C4.698 1.5 4.104 1.5 3.641 1.538ZM1.538 9.359C1.53585 9.33235 1.53385 9.30568 1.532 9.279C1.54738 9.26332 1.56206 9.24697 1.576 9.23L3.376 7.071C3.39829 7.04449 3.42584 7.02291 3.45691 7.00761C3.48798 6.99231 3.52189 6.98364 3.55648 6.98213C3.59108 6.98063 3.62562 6.98633 3.6579 6.99887C3.69017 7.01142 3.7195 7.03053 3.744 7.055L6.97 10.28C7.11063 10.4205 7.30125 10.4993 7.5 10.4993C7.69875 10.4993 7.88937 10.4205 8.03 10.28L9.74 8.57C9.76489 8.54516 9.79474 8.52585 9.8276 8.51333C9.86046 8.50081 9.89559 8.49537 9.93069 8.49735C9.9658 8.49933 10.0001 8.50869 10.0313 8.52483C10.0626 8.54097 10.0901 8.56352 10.112 8.591L11.325 10.107C11.304 10.167 11.28 10.221 11.255 10.272C11.039 10.695 10.695 11.039 10.271 11.255C10.074 11.355 9.813 11.425 9.359 11.462C8.897 11.499 8.303 11.5 7.45 11.5H5.55C4.698 11.5 4.103 11.5 3.64 11.462C3.187 11.425 2.926 11.355 2.729 11.255C2.30526 11.0392 1.96078 10.6947 1.745 10.271C1.645 10.074 1.575 9.813 1.538 9.359Z" fill="black"/>
</svg>
