<svg width="88" height="27" viewBox="0 0 88 27" fill="none" xmlns="http://www.w3.org/2000/svg">
<path d="M31.2701 13.7109C30.5321 13.3179 30.1528 12.9866 30.1528 12.5313C30.1528 11.9519 30.6797 11.5796 31.5024 11.5796C32.4602 11.5796 33.3154 11.9726 33.3154 11.9726L33.9898 9.94463C33.9898 9.94463 33.3696 9.46849 31.5441 9.46849C29.0037 9.46849 27.2431 10.8963 27.2431 12.9035C27.2431 14.0416 28.0651 14.9108 29.1619 15.5311C30.0475 16.0274 30.3639 16.3795 30.3639 16.8965C30.3639 17.4344 29.9211 17.869 29.099 17.869C27.8739 17.869 26.7168 17.248 26.7168 17.248L26 19.276C26 19.276 27.069 19.9795 28.8674 19.9795C31.4819 19.9795 33.3584 18.7173 33.3584 16.4412C33.3577 15.2213 32.4092 14.3521 31.2701 13.7109Z" fill="#303030"/>
<path d="M41.6857 9.44836C40.3997 9.44836 39.3876 10.0486 38.6079 10.9587L38.5655 10.9379L39.6828 5.20657H36.7731L33.9481 19.7937H36.8578L37.8275 14.8074C38.2068 12.9243 39.1976 11.7661 40.1256 11.7661C40.7789 11.7661 41.0324 12.2007 41.0324 12.8217C41.0324 13.2147 40.9901 13.6908 40.906 14.0838L39.8099 19.7943H42.7196L43.8581 13.8974C43.9845 13.2764 44.0692 12.532 44.0692 12.035C44.0679 10.4208 43.2035 9.44836 41.6857 9.44836Z" fill="#303030"/>
<path d="M50.6459 9.44836C47.1458 9.44836 44.8271 12.5521 44.8271 16.0073C44.8271 18.2211 46.2184 20.0003 48.833 20.0003C52.2696 20.0003 54.5889 16.9797 54.5889 13.4414C54.5889 11.3932 53.3657 9.44836 50.6459 9.44836ZM49.2122 17.8079C48.2214 17.8079 47.7997 16.9803 47.7997 15.9456C47.7997 14.3112 48.6642 11.642 50.2455 11.642C51.2787 11.642 51.6156 12.5112 51.6156 13.3595C51.6156 15.118 50.7518 17.8079 49.2122 17.8079Z" fill="#303030"/>
<path d="M62.0314 9.44836C60.0675 9.44836 58.9529 11.1451 58.9529 11.1451H58.9112L59.0799 9.61401H56.5078C56.3814 10.6488 56.149 12.2208 55.9174 13.4004L53.8933 23.8491H56.803L57.6039 19.6281H57.6675C57.6675 19.6281 58.2645 20.0003 59.3752 20.0003C62.7906 20.0003 65.0252 16.5659 65.0252 13.0893C65.0252 11.1659 64.1607 9.44836 62.0314 9.44836ZM59.2481 17.8488C58.4928 17.8488 58.0461 17.4351 58.0461 17.4351L58.5312 14.7659C58.8688 12.9867 59.8173 11.807 60.8294 11.807C61.715 11.807 61.989 12.6138 61.989 13.3797C61.989 15.2213 60.8717 17.8488 59.2481 17.8488Z" fill="#303030"/>
<path d="M69.1785 5.35143C68.2512 5.35143 67.5132 6.07571 67.5132 7.00657C67.5132 7.85493 68.0612 8.43436 68.8833 8.43436H68.9256C69.8325 8.43436 70.6122 7.83414 70.6334 6.77921C70.6334 5.95164 70.0641 5.35143 69.1785 5.35143Z" fill="#303030"/>
<path d="M65.1099 19.7937H68.019L70.0014 9.67636H67.0705L65.1099 19.7937Z" fill="#303030"/>
<path d="M77.4014 9.65558H75.3773L75.4826 9.17943C75.6514 8.207 76.2418 7.33786 77.2115 7.33786C77.7291 7.33786 78.1388 7.48272 78.1388 7.48272L78.708 5.24814C78.708 5.24814 78.2023 5 77.1267 5C76.0935 5 75.0609 5.28971 74.2806 5.95164C73.2897 6.77922 72.8257 7.979 72.594 9.17943L72.51 9.65558H71.1603L70.7387 11.8076H72.0883L70.5494 19.7943H73.4591L74.9981 11.8076H77.001L77.4014 9.65558Z" fill="#303030"/>
<path d="M84.401 9.67637C84.401 9.67637 82.5821 14.1735 81.7653 16.6283H81.7229C81.6673 15.8377 81.0061 9.67637 81.0061 9.67637H77.9488L79.6995 18.9661C79.7418 19.1727 79.7207 19.2974 79.6359 19.4423C79.2984 20.0834 78.7291 20.7044 78.0547 21.1598C77.5066 21.5528 76.895 21.8009 76.4105 21.9666L77.2114 24.3876C77.8018 24.2635 79.0243 23.7874 80.0576 22.8357C81.386 21.6151 82.6086 19.732 83.8734 17.1661L87.4365 9.67572L84.401 9.67637Z" fill="#303030"/>
<path d="M15.8063 3.06959C15.8063 3.06959 15.51 3.15423 15.0234 3.30235C14.9387 3.02727 14.8118 2.70988 14.6425 2.37132C14.0923 1.31334 13.2671 0.742029 12.2938 0.742029C12.2303 0.742029 12.1668 0.742029 12.0822 0.763189C12.061 0.72087 12.0187 0.69971 11.9975 0.657391C11.5743 0.191878 11.0242 -0.0197189 10.3682 0.00144072C9.09866 0.0437601 7.82908 0.953626 6.81341 2.58292C6.09399 3.72554 5.54383 5.1644 5.39572 6.28586C3.9357 6.73022 2.92003 7.04761 2.89888 7.06877C2.15829 7.30153 2.13713 7.32269 2.05249 8.02096C1.92553 8.54995 0 23.4675 0 23.4675L15.9967 26.2394V3.02727C15.9121 3.04843 15.8486 3.04843 15.8063 3.06959ZM12.1033 4.21222C11.2569 4.46613 10.3259 4.76237 9.41605 5.03744C9.66997 4.04294 10.1778 3.04843 10.7703 2.39248C11.003 2.15973 11.3204 1.88465 11.6801 1.71537C12.0399 2.47712 12.1245 3.51395 12.1033 4.21222ZM10.3894 0.847828C10.6856 0.847828 10.9396 0.911307 11.1511 1.03826C10.8126 1.20754 10.474 1.48262 10.1566 1.80001C9.35258 2.66756 8.73894 4.02178 8.48503 5.31252C7.72328 5.54527 6.96153 5.77803 6.26326 5.98963C6.70762 3.97946 8.42155 0.911307 10.3894 0.847828ZM7.91372 12.4856C7.99836 13.8399 11.5743 14.1361 11.7859 17.3312C11.9341 19.8492 10.4529 21.5631 8.31575 21.6901C5.73427 21.8594 4.31657 20.3359 4.31657 20.3359L4.86672 18.0083C4.86672 18.0083 6.28442 19.0875 7.42704 19.0028C8.16763 18.9605 8.44271 18.3469 8.42155 17.9237C8.31575 16.1463 5.39572 16.2521 5.20528 13.332C5.036 10.8987 6.64414 8.42299 10.199 8.19023C11.5743 8.1056 12.2726 8.44415 12.2726 8.44415L11.4685 11.4911C11.4685 11.4911 10.5587 11.0679 9.47953 11.1526C7.91372 11.2584 7.89256 12.2529 7.91372 12.4856ZM12.9497 3.9583C12.9497 3.32351 12.8651 2.41364 12.5688 1.6519C13.5422 1.84233 14.0077 2.92148 14.2193 3.57743C13.8384 3.68322 13.4152 3.81018 12.9497 3.9583Z" fill="#303030"/>
<path d="M16.5257 26.1548L23.1698 24.5043C23.1698 24.5043 20.3133 5.18556 20.2921 5.0586C20.271 4.93164 20.1652 4.847 20.0594 4.847C19.9536 4.847 18.0915 4.80469 18.0915 4.80469C18.0915 4.80469 16.9489 3.70438 16.5257 3.28119V26.1548Z" fill="#303030"/>
</svg>
