<svg width="92" height="30" viewBox="0 0 92 30" fill="none" xmlns="http://www.w3.org/2000/svg">
<path d="M13.7901 0H10.6401V9.1C9.5901 8.43 8.3301 8.03 6.9501 8.02C3.0501 7.98 0.0201021 10.98 0.00010212 14.91C-0.0198979 18.81 2.9001 21.8 6.7401 21.84C10.4001 21.87 13.3601 19.28 13.7401 15.83H13.7801V0H13.7901ZM6.8301 18.82C4.8101 18.8 3.3001 17.2 3.2601 15.02C3.2201 12.78 4.7101 11.17 6.8401 11.16C9.0001 11.15 10.4801 12.7 10.4701 14.95C10.4701 17.16 8.8801 18.84 6.8301 18.82Z" fill="#231F20"/>
<path d="M77.6201 16.9H77.6601C78.0401 20.35 81.0001 22.94 84.6601 22.91C88.5001 22.88 91.4201 19.88 91.4001 15.98C91.3801 12.06 88.3601 9.06001 84.4501 9.09001C83.0701 9.10001 81.8101 9.49001 80.7601 10.17V1.07001H77.6101V16.9H77.6201ZM80.9401 16.02C80.9401 13.77 82.4201 12.22 84.5701 12.23C86.6901 12.24 88.1901 13.86 88.1501 16.09C88.1101 18.26 86.6101 19.86 84.5801 19.89C82.5301 19.91 80.9501 18.23 80.9401 16.02Z" fill="#F8BC16"/>
<path d="M30.2401 29.74H33.3901V20.64C34.4401 21.31 35.7001 21.71 37.0801 21.72C40.9801 21.76 44.0101 18.76 44.0301 14.83C44.0501 10.93 41.1301 7.94001 37.2901 7.90001C33.6301 7.87001 30.6701 10.46 30.2901 13.91H30.2501V29.74H30.2401ZM37.2001 10.92C39.2201 10.94 40.7301 12.54 40.7701 14.72C40.8101 16.96 39.3201 18.57 37.1901 18.58C35.0301 18.59 33.5501 17.04 33.5601 14.79C33.5601 12.58 35.1501 10.9 37.2001 10.92Z" fill="#231F20"/>
<path d="M21.8501 21.6C18.0101 21.57 15.0901 18.57 15.1101 14.67C15.1301 10.75 18.1501 7.75001 22.0601 7.78001C25.9901 7.82001 28.9501 10.92 28.9001 14.93C28.8501 18.7 25.7501 21.63 21.8601 21.59M21.9501 10.91C19.8301 10.92 18.3301 12.54 18.3701 14.77C18.4101 16.94 19.9101 18.54 21.9401 18.57C23.9901 18.59 25.5701 16.91 25.5801 14.7C25.5801 12.45 24.1001 10.9 21.9501 10.91Z" fill="#231F20"/>
<path d="M76.3501 16.61C76.3901 16.33 76.4101 16.05 76.4201 15.76C76.4701 11.75 73.5101 8.64 69.5801 8.61C65.6801 8.57 62.6501 11.57 62.6301 15.5C62.6101 19.4 65.5301 22.39 69.3701 22.43C72.0501 22.45 74.3601 21.07 75.5501 18.97L72.5501 17.62C71.9201 18.72 70.7901 19.42 69.4501 19.41C67.7401 19.39 66.4001 18.24 66.0101 16.57H72.9701V16.59C73.9901 16.59 75.1901 16.61 76.3501 16.61ZM69.4701 11.75C71.2101 11.74 72.5101 12.75 72.9501 14.33H66.0601C66.5001 12.79 67.7801 11.77 69.4701 11.75Z" fill="#EA473A"/>
<path d="M59.9801 9.03L57.5401 18.07L55.1101 9.03H54.9301H54.7401H52.4601H52.0901H52.0601L49.6501 18.02L47.2301 9.03H44.5701L48.2301 22.6H48.4101H51.0601H51.0901L53.5101 13.61L55.9301 22.6H56.1101H58.5801H58.9701L62.6301 9.03H59.9801Z" fill="#4989C8"/>
<path d="M25.3201 23.62C25.8101 23.96 26.2301 24.25 26.6401 24.54C22.8801 30.82 9.19008 31.24 3.21008 25.27C3.47008 24.9 3.73008 24.51 4.06008 24.03C7.34008 26.28 10.8701 27.53 14.8201 27.44C18.6901 27.36 22.3101 26.6 25.3101 23.62" fill="#F99C1C"/>
<path d="M18.9701 5.88999C18.4801 5.54999 18.0601 5.25999 17.6501 4.96999C21.4101 -1.31001 35.1001 -1.73001 41.0801 4.23999C40.8201 4.60999 40.5601 4.99999 40.2301 5.47999C36.9501 3.22999 33.4201 1.97999 29.4701 2.06999C25.6001 2.14999 21.9801 2.90999 18.9801 5.88999" fill="#F99C1C"/>
</svg>
