<svg width="20" height="20" viewBox="0 0 20 20" fill="none" xmlns="http://www.w3.org/2000/svg">
<path fill-rule="evenodd" clip-rule="evenodd" d="M6.5 14.5H8.85L9.258 17.356C9.28347 17.5348 9.3726 17.6984 9.509 17.8167C9.6454 17.935 9.81992 18.0002 10.0005 18.0002C10.1811 18.0002 10.3556 17.935 10.492 17.8167C10.6284 17.6984 10.7175 17.5348 10.743 17.356L11.15 14.5H13.5C14.0304 14.5 14.5391 14.2893 14.9142 13.9142C15.2893 13.5391 15.5 13.0304 15.5 12.5V12C15.5002 11.4791 15.2972 10.9787 14.9341 10.6052C14.5711 10.2317 14.0767 10.0146 13.556 10L12.947 7.262C13.2654 7.09086 13.5314 6.83665 13.7168 6.52639C13.9022 6.21614 14.0001 5.86144 14 5.5V5C14 4.46957 13.7893 3.96086 13.4142 3.58579C13.0391 3.21071 12.5304 3 12 3H8C7.46957 3 6.96086 3.21071 6.58579 3.58579C6.21071 3.96086 6 4.46957 6 5V5.5C5.99993 5.86144 6.0978 6.21614 6.28321 6.52639C6.46862 6.83665 6.73465 7.09086 7.053 7.262L6.444 10.001C5.92351 10.0156 5.42922 10.2326 5.0662 10.6059C4.70318 10.9792 4.50006 11.4793 4.5 12V12.5C4.5 13.0304 4.71071 13.5391 5.08579 13.9142C5.46086 14.2893 5.96957 14.5 6.5 14.5ZM7.981 10H9.25C9.44891 10 9.63968 10.079 9.78033 10.2197C9.92098 10.3603 10 10.5511 10 10.75C10 10.9489 9.92098 11.1397 9.78033 11.2803C9.63968 11.421 9.44891 11.5 9.25 11.5H6.75V11.493L6.485 11.5C6.35501 11.5039 6.23165 11.5583 6.1411 11.6516C6.05056 11.745 5.99994 11.87 6 12V12.5C6 12.6326 6.05268 12.7598 6.14645 12.8536C6.24021 12.9473 6.36739 13 6.5 13H13.5C13.6326 13 13.7598 12.9473 13.8536 12.8536C13.9473 12.7598 14 12.6326 14 12.5V12C14.0001 11.87 13.9494 11.745 13.8589 11.6516C13.7683 11.5583 13.645 11.5039 13.515 11.5L12.345 11.468L11.237 6.48L12.236 5.941C12.3158 5.89827 12.3825 5.83469 12.429 5.75702C12.4755 5.67935 12.5 5.59052 12.5 5.5V5C12.5 4.86739 12.4473 4.74021 12.3536 4.64645C12.2598 4.55268 12.1326 4.5 12 4.5H8C7.86739 4.5 7.74021 4.55268 7.64645 4.64645C7.55268 4.74021 7.5 4.86739 7.5 5V5.5C7.49996 5.59052 7.5245 5.67935 7.571 5.75702C7.61749 5.83469 7.6842 5.89827 7.764 5.941L8.764 6.48L7.981 10Z" fill="black"/>
</svg>
