<svg width="20" height="20" viewBox="0 0 20 20" fill="none" xmlns="http://www.w3.org/2000/svg">
<path fill-rule="evenodd" clip-rule="evenodd" d="M11.677 4.737C11.6538 4.71372 11.6262 4.69525 11.5959 4.68264C11.5655 4.67004 11.5329 4.66355 11.5 4.66355C11.4672 4.66355 11.4346 4.67004 11.4042 4.68264C11.3739 4.69525 11.3463 4.71372 11.323 4.737L8.48705 7.573C8.46377 7.59622 8.4453 7.62381 8.43269 7.65418C8.42009 7.68456 8.4136 7.71712 8.4136 7.75C8.4136 7.78288 8.42009 7.81544 8.43269 7.84582C8.4453 7.87619 8.46377 7.90378 8.48705 7.927L12.073 11.512C12.1198 11.5588 12.1832 11.5853 12.2493 11.5854C12.3155 11.5856 12.3791 11.5596 12.426 11.513L15.263 8.677C15.2863 8.65378 15.3048 8.62619 15.3174 8.59582C15.33 8.56544 15.3365 8.53288 15.3365 8.5C15.3365 8.46712 15.33 8.43456 15.3174 8.40418C15.3048 8.37381 15.2863 8.34622 15.263 8.323L13.5 6.561L13.03 7.031C12.8885 7.16755 12.699 7.24306 12.5024 7.24126C12.3058 7.23946 12.1177 7.16049 11.9787 7.02137C11.8397 6.88225 11.7609 6.6941 11.7593 6.49745C11.7577 6.3008 11.8334 6.11139 11.97 5.97L12.44 5.5L11.677 4.737ZM10.263 3.677L5.67705 8.262C5.51453 8.4245 5.38561 8.61743 5.29765 8.82976C5.20969 9.04209 5.16442 9.26967 5.16442 9.4995C5.16442 9.72933 5.20969 9.95691 5.29765 10.1692C5.38561 10.3816 5.51453 10.5745 5.67705 10.737L5.93905 11L3.96905 12.97C3.56327 13.3759 3.33536 13.9264 3.33545 14.5004C3.33554 15.0743 3.56364 15.6247 3.96955 16.0305C4.37546 16.4363 4.92595 16.6642 5.4999 16.6641C6.07386 16.664 6.62427 16.4359 7.03005 16.03L9.00005 14.06L9.26305 14.323C9.5912 14.6509 10.0361 14.8351 10.5 14.8351C10.964 14.8351 11.4089 14.6509 11.7371 14.323L16.323 9.737C16.4856 9.5745 16.6145 9.38157 16.7024 9.16924C16.7904 8.95691 16.8357 8.72933 16.8357 8.4995C16.8357 8.26967 16.7904 8.04209 16.7024 7.82976C16.6145 7.61743 16.4856 7.4245 16.323 7.262L12.7371 3.677C12.4089 3.34908 11.964 3.16487 11.5 3.16487C11.0361 3.16487 10.5912 3.34908 10.263 3.677ZM6.73705 9.323L7.26305 8.798C7.31205 8.864 7.36705 8.928 7.42705 8.988L11.013 12.573C11.073 12.633 11.136 12.688 11.202 12.737L10.677 13.262C10.6538 13.2853 10.6262 13.3038 10.5959 13.3164C10.5655 13.329 10.5329 13.3354 10.5 13.3354C10.4672 13.3354 10.4346 13.329 10.4042 13.3164C10.3739 13.3038 10.3463 13.2853 10.323 13.262L6.73705 9.677C6.71377 9.65378 6.6953 9.62619 6.68269 9.59582C6.67009 9.56544 6.6636 9.53288 6.6636 9.5C6.6636 9.46712 6.67009 9.43456 6.68269 9.40418C6.6953 9.37381 6.71377 9.34622 6.73705 9.323ZM7.00005 12.06L5.03005 14.03C4.96833 14.0917 4.91937 14.165 4.88596 14.2456C4.85256 14.3263 4.83537 14.4127 4.83537 14.5C4.83537 14.5873 4.85256 14.6737 4.88596 14.7544C4.91937 14.835 4.96833 14.9083 5.03005 14.97C5.1547 15.0947 5.32377 15.1647 5.50005 15.1647C5.58734 15.1647 5.67377 15.1475 5.75441 15.1141C5.83505 15.0807 5.90833 15.0317 5.97005 14.97L7.94005 13L7.00005 12.06Z" fill="black"/>
</svg>
