<svg width="20" height="20" viewBox="0 0 20 20" fill="none" xmlns="http://www.w3.org/2000/svg">
<path d="M6.5 5.275V4.25C6.5 3.56 7.06 3 7.75 3H12.25C12.94 3 13.5 3.56 13.5 4.25V5.275C13.5 5.723 13.26 6.137 12.87 6.36L12.44 6.606L13.306 10.5H14C14.69 10.5 15.25 11.06 15.25 11.75V12.75C15.25 13.44 14.69 14 14 14H11.219L10.739 16.873C10.7094 17.0477 10.619 17.2064 10.4836 17.3208C10.3482 17.4352 10.1767 17.4979 9.9995 17.4979C9.82227 17.4979 9.65077 17.4352 9.5154 17.3208C9.38003 17.2064 9.28955 17.0477 9.26 16.873L8.781 14H6C5.31 14 4.75 13.44 4.75 12.75V11.75C4.75 11.06 5.31 10.5 6 10.5H6.694L7.56 6.606L7.13 6.36C6.93868 6.25072 6.77965 6.09281 6.66901 5.90227C6.55838 5.71173 6.50007 5.49533 6.5 5.275Z" fill="black"/>
</svg>
