<svg width="17" height="18" viewBox="0 0 17 18" fill="none" xmlns="http://www.w3.org/2000/svg">
<path fill-rule="evenodd" clip-rule="evenodd" d="M5.5 4C5.5 3.20435 5.81607 2.44129 6.37868 1.87868C6.94129 1.31607 7.70435 1 8.5 1C9.29565 1 10.0587 1.31607 10.6213 1.87868C11.1839 2.44129 11.5 3.20435 11.5 4C11.5 4.79565 11.1839 5.55871 10.6213 6.12132C10.0587 6.68393 9.29565 7 8.5 7C7.70435 7 6.94129 6.68393 6.37868 6.12132C5.81607 5.55871 5.5 4.79565 5.5 4ZM8.5 0C7.43913 0 6.42172 0.421427 5.67157 1.17157C4.92143 1.92172 4.5 2.93913 4.5 4C4.5 5.06087 4.92143 6.07828 5.67157 6.82843C6.42172 7.57857 7.43913 8 8.5 8C9.56087 8 10.5783 7.57857 11.3284 6.82843C12.0786 6.07828 12.5 5.06087 12.5 4C12.5 2.93913 12.0786 1.92172 11.3284 1.17157C10.5783 0.421427 9.56087 0 8.5 0ZM14.08 12.15C15.2 12.97 15.91 14.39 15.99 17H1.01C1.09 14.4 1.8 12.97 2.91 12.15C4.16 11.25 6 11 8.5 11C11 11 12.85 11.26 14.08 12.15ZM8.5 10C6 10 3.85 10.24 2.33 11.35C0.77 12.48 0 14.43 0 17.5V18H17V17.5C17 14.43 16.23 12.48 14.67 11.35C13.15 10.25 11 10 8.5 10Z" fill="black"/>
</svg>
