<svg width="18" height="18" viewBox="0 0 18 18" fill="none" xmlns="http://www.w3.org/2000/svg">
<path fill-rule="evenodd" clip-rule="evenodd" d="M11.1487 11.133C10.598 11.6837 9.94419 12.1205 9.22465 12.4186C8.5051 12.7166 7.7339 12.87 6.95508 12.87C6.17625 12.87 5.40505 12.7166 4.6855 12.4186C3.96596 12.1205 3.31217 11.6837 2.76145 11.133C2.21074 10.5823 1.77389 9.92846 1.47584 9.20892C1.1778 8.48938 1.0244 7.71817 1.0244 6.93935C1.0244 6.16052 1.1778 5.38932 1.47584 4.66977C1.77389 3.95023 2.21074 3.29644 2.76145 2.74572C3.87367 1.63351 5.38216 1.00867 6.95508 1.00867C8.52799 1.00867 10.0365 1.63351 11.1487 2.74572C12.2609 3.85794 12.8858 5.36643 12.8858 6.93935C12.8858 8.51226 12.2609 10.0208 11.1487 11.133ZM11.4153 12.2813C10.036 13.4365 8.26256 14.0119 6.4678 13.8867C4.67304 13.7614 2.99673 12.9452 1.79126 11.6097C0.585783 10.2741 -0.0549663 8.52326 0.00370074 6.72509C0.0623678 4.92692 0.815882 3.22152 2.10585 1.96739C3.39581 0.713256 5.12175 0.00806995 6.92086 6.88334e-05C8.71997 -0.00793229 10.4521 0.681874 11.7532 1.92448C13.0543 3.16709 13.8229 4.86572 13.8976 6.6633C13.9722 8.46088 13.3471 10.2174 12.1535 11.5636L17.6903 17.1004C17.7437 17.1468 17.7868 17.2036 17.8171 17.2674C17.8474 17.3313 17.8642 17.4007 17.8664 17.4713C17.8686 17.5419 17.8562 17.6122 17.83 17.6778C17.8037 17.7434 17.7642 17.8028 17.7139 17.8524C17.6636 17.902 17.6036 17.9407 17.5377 17.966C17.4717 17.9913 17.4012 18.0027 17.3307 17.9995C17.2601 17.9963 17.1909 17.9785 17.1276 17.9473C17.0642 17.9161 17.0079 17.8721 16.9624 17.8182L11.4153 12.2813Z" fill="black"/>
</svg>
