<svg width="14" height="14" viewBox="0 0 14 14" fill="none" xmlns="http://www.w3.org/2000/svg">
<path d="M0 2.96154C0 1.32569 1.32569 0 2.96154 0C3.40738 0 3.76923 0.361846 3.76923 0.807692C3.76923 1.25354 3.40738 1.61538 2.96154 1.61538C2.21846 1.61538 1.61538 2.21846 1.61538 2.96154C1.61538 3.40738 1.25354 3.76923 0.807692 3.76923C0.361846 3.76923 0 3.40738 0 2.96154Z" fill="black"/>
<path fill-rule="evenodd" clip-rule="evenodd" d="M0 6.19231C0 5.152 0.844308 4.30769 1.88462 4.30769H12.1154C13.1557 4.30769 14 5.152 14 6.19231V7.80769C14 8.848 13.1557 9.69231 12.1154 9.69231H1.88462C0.844308 9.69231 0 8.848 0 7.80769V6.19231ZM1.88462 5.92308C1.736 5.92308 1.61538 6.04369 1.61538 6.19231V7.80769C1.61538 7.95631 1.736 8.07692 1.88462 8.07692H12.1154C12.264 8.07692 12.3846 7.95631 12.3846 7.80769V6.19231C12.3846 6.04369 12.264 5.92308 12.1154 5.92308H1.88462Z" fill="black"/>
<path d="M0 11.0385C0 12.6743 1.32569 14 2.96154 14C3.40738 14 3.76923 13.6382 3.76923 13.1923C3.76923 12.7465 3.40738 12.3846 2.96154 12.3846C2.21846 12.3846 1.61538 11.7815 1.61538 11.0385C1.61538 10.5926 1.25354 10.2308 0.807692 10.2308C0.361846 10.2308 0 10.5926 0 11.0385Z" fill="black"/>
<path d="M11.0385 0C12.6743 0 14 1.32569 14 2.96154C14 3.40738 13.6382 3.76923 13.1923 3.76923C12.7465 3.76923 12.3846 3.40738 12.3846 2.96154C12.3846 2.21846 11.7815 1.61538 11.0385 1.61538C10.5926 1.61538 10.2308 1.25354 10.2308 0.807692C10.2308 0.361846 10.5926 0 11.0385 0Z" fill="black"/>
<path d="M11.0385 14C12.6743 14 14 12.6743 14 11.0385C14 10.5926 13.6382 10.2308 13.1923 10.2308C12.7465 10.2308 12.3846 10.5926 12.3846 11.0385C12.3846 11.7815 11.7815 12.3846 11.0385 12.3846C10.5926 12.3846 10.2308 12.7465 10.2308 13.1923C10.2308 13.6382 10.5926 14 11.0385 14Z" fill="black"/>
<path d="M8.88459 0.807692C8.88459 1.25354 8.52274 1.61538 8.0769 1.61538H5.92305C5.4772 1.61538 5.11536 1.25354 5.11536 0.807692C5.11536 0.361846 5.4772 0 5.92305 0H8.0769C8.52274 0 8.88459 0.361846 8.88459 0.807692Z" fill="black"/>
<path d="M8.0769 14C8.52274 14 8.88459 13.6382 8.88459 13.1923C8.88459 12.7465 8.52274 12.3846 8.0769 12.3846H5.92305C5.4772 12.3846 5.11536 12.7465 5.11536 13.1923C5.11536 13.6382 5.4772 14 5.92305 14H8.0769Z" fill="black"/>
</svg>
