<svg width="14" height="15" viewBox="0 0 14 15" fill="none" xmlns="http://www.w3.org/2000/svg">
<path fill-rule="evenodd" clip-rule="evenodd" d="M9.49988 7.5C9.49988 8.16304 9.23649 8.79893 8.76764 9.26777C8.2988 9.73661 7.66292 10 6.99988 10C6.33684 10 5.70095 9.73661 5.23211 9.26777C4.76327 8.79893 4.49988 8.16304 4.49988 7.5C4.49988 6.83696 4.76327 6.20107 5.23211 5.73223C5.70095 5.26339 6.33684 5 6.99988 5C7.66292 5 8.2988 5.26339 8.76764 5.73223C9.23649 6.20107 9.49988 6.83696 9.49988 7.5ZM7.99988 7.5C7.99988 7.76522 7.89452 8.01957 7.70698 8.20711C7.51945 8.39464 7.26509 8.5 6.99988 8.5C6.73466 8.5 6.48031 8.39464 6.29277 8.20711C6.10523 8.01957 5.99988 7.76522 5.99988 7.5C5.99988 7.23478 6.10523 6.98043 6.29277 6.79289C6.48031 6.60536 6.73466 6.5 6.99988 6.5C7.26509 6.5 7.51945 6.60536 7.70698 6.79289C7.89452 6.98043 7.99988 7.23478 7.99988 7.5Z" fill="black"/>
<path fill-rule="evenodd" clip-rule="evenodd" d="M6.37689 0C5.45089 0 4.70089 0.75 4.70089 1.676V2.364C4.70089 2.42 4.65789 2.534 4.50289 2.615C4.34989 2.695 4.19989 2.783 4.05489 2.877C3.90789 2.974 3.78689 2.953 3.73689 2.925L3.13689 2.579C2.94629 2.46885 2.73585 2.39733 2.5176 2.36852C2.29935 2.33971 2.07756 2.35419 1.8649 2.41111C1.65225 2.46804 1.45289 2.5663 1.27822 2.70029C1.10354 2.83427 0.956977 3.00136 0.846891 3.192L0.224891 4.272C0.00274645 4.65685 -0.0574694 5.11417 0.0574821 5.54341C0.172434 5.97265 0.453142 6.33867 0.837891 6.561L1.48589 6.935C1.53389 6.963 1.60989 7.055 1.60489 7.225C1.59998 7.38 1.60165 7.53514 1.60989 7.69C1.61889 7.865 1.53989 7.96 1.49089 7.989L0.837891 8.366C0.647249 8.47609 0.480163 8.62265 0.346176 8.79733C0.212189 8.972 0.113927 9.17136 0.0570017 9.38401C7.66292e-05 9.59667 -0.0143957 9.81846 0.0144111 10.0367C0.0432179 10.255 0.114739 10.4654 0.224891 10.656L0.847891 11.736C0.957977 11.9266 1.10454 12.0937 1.27922 12.2277C1.45389 12.3617 1.65325 12.46 1.8659 12.5169C2.07856 12.5738 2.30035 12.5883 2.5186 12.5595C2.73685 12.5307 2.94729 12.4592 3.13789 12.349L3.83789 11.944C3.88589 11.916 4.00389 11.896 4.14989 11.987C4.26489 12.058 4.38289 12.126 4.50289 12.189C4.65789 12.269 4.70089 12.384 4.70089 12.44V13.251C4.70089 14.177 5.45089 14.927 6.37689 14.927H7.62289C8.54889 14.927 9.29889 14.177 9.29889 13.251V12.441C9.29889 12.384 9.34089 12.27 9.49589 12.189C9.61689 12.126 9.73489 12.059 9.84989 11.987C9.99589 11.896 10.1139 11.917 10.1619 11.944L10.8619 12.349C11.0526 12.4591 11.263 12.5306 11.4813 12.5593C11.6996 12.588 11.9214 12.5735 12.1341 12.5165C12.3468 12.4594 12.5461 12.3611 12.7207 12.227C12.8954 12.0929 13.0419 11.9257 13.1519 11.735L13.7749 10.655C13.997 10.2701 14.0573 9.81283 13.9423 9.38359C13.8273 8.95435 13.5466 8.58833 13.1619 8.366L12.5089 7.989C12.4589 7.96 12.3809 7.866 12.3899 7.689C12.3981 7.53481 12.3997 7.38033 12.3949 7.226C12.3899 7.055 12.4649 6.963 12.5149 6.935L13.1619 6.561C13.3525 6.45091 13.5196 6.30435 13.6536 6.12967C13.7876 5.955 13.8859 5.75564 13.9428 5.54299C13.9997 5.33033 14.0142 5.10854 13.9854 4.89029C13.9566 4.67204 13.885 4.4616 13.7749 4.271L13.1519 3.192C13.0418 3.00136 12.8952 2.83427 12.7206 2.70029C12.5459 2.5663 12.3465 2.46804 12.1339 2.41111C11.9212 2.35419 11.6994 2.33971 11.4812 2.36852C11.2629 2.39733 11.0525 2.46885 10.8619 2.579L10.2619 2.925C10.2129 2.953 10.0919 2.973 9.94389 2.877C9.79884 2.78254 9.64934 2.6951 9.49589 2.615C9.34089 2.534 9.29889 2.42 9.29889 2.364V1.676C9.29889 0.75 8.54889 0 7.62289 0H6.37689ZM6.20089 1.676C6.20089 1.579 6.27889 1.5 6.37689 1.5H7.62289C7.71989 1.5 7.79889 1.579 7.79889 1.676V2.364C7.79889 3.092 8.26089 3.662 8.80189 3.944C8.91189 4.002 9.02089 4.066 9.12489 4.134C9.64189 4.471 10.3749 4.592 11.0129 4.224L11.6129 3.878C11.6532 3.85476 11.7011 3.84845 11.7461 3.86044C11.7911 3.87243 11.8295 3.90176 11.8529 3.942L12.4759 5.022C12.4991 5.06234 12.5054 5.11024 12.4935 5.15522C12.4815 5.2002 12.4521 5.23859 12.4119 5.262L11.7639 5.636C11.1409 5.996 10.8759 6.67 10.8959 7.274C10.8991 7.38634 10.8977 7.49877 10.8919 7.611C10.8599 8.226 11.1219 8.921 11.7589 9.288L12.4119 9.665C12.4521 9.68841 12.4815 9.7268 12.4935 9.77178C12.5054 9.81676 12.4991 9.86466 12.4759 9.905L11.8529 10.985C11.8296 11.0254 11.7913 11.0549 11.7463 11.0671C11.7013 11.0793 11.6533 11.0732 11.6129 11.05L10.9119 10.645C10.2879 10.285 9.57089 10.394 9.05689 10.714C8.97373 10.7655 8.88867 10.8139 8.80189 10.859C8.26189 11.142 7.79889 11.712 7.79889 12.44V13.251C7.79889 13.2977 7.78035 13.3424 7.74734 13.3755C7.71434 13.4085 7.66957 13.427 7.62289 13.427H6.37689C6.33021 13.427 6.28545 13.4085 6.25244 13.3755C6.21943 13.3424 6.20089 13.2977 6.20089 13.251V12.441C6.20089 11.711 5.73889 11.141 5.19789 10.859C5.11107 10.8136 5.02601 10.7649 4.94289 10.713C4.42889 10.393 3.71289 10.285 3.08789 10.645L2.38789 11.05C2.36782 11.0616 2.34564 11.0692 2.32264 11.0722C2.29964 11.0752 2.27627 11.0737 2.25387 11.0676C2.23148 11.0616 2.2105 11.0512 2.19214 11.037C2.17377 11.0228 2.1584 11.0051 2.14689 10.985L1.52389 9.905C1.50065 9.86466 1.49434 9.81676 1.50633 9.77178C1.51833 9.7268 1.54765 9.68841 1.58789 9.665L2.24089 9.288C2.87789 8.92 3.13989 8.226 3.10789 7.611C3.10179 7.49877 3.10045 7.38634 3.10389 7.274C3.12389 6.67 2.85889 5.996 2.23589 5.636L1.58789 5.262C1.54765 5.23859 1.51833 5.2002 1.50633 5.15522C1.49434 5.11024 1.50065 5.06234 1.52389 5.022L2.14689 3.942C2.1703 3.90176 2.20869 3.87243 2.25367 3.86044C2.29865 3.84845 2.34656 3.85476 2.38689 3.878L2.98689 4.224C3.62489 4.592 4.35689 4.471 4.87489 4.134C4.97941 4.06546 5.0872 4.00205 5.19789 3.944C5.73789 3.662 6.20089 3.092 6.20089 2.364V1.676Z" fill="black"/>
</svg>
