<svg width="19" height="18" viewBox="0 0 19 18" fill="none" xmlns="http://www.w3.org/2000/svg">
<path fill-rule="evenodd" clip-rule="evenodd" d="M4.18821 0H0.83048L0.012298 12.3259C-0.0372245 13.0524 0.063163 13.7814 0.307225 14.4676C0.551287 15.1538 0.933813 15.7824 1.43104 16.3145C1.92828 16.8466 2.5296 17.2708 3.19766 17.5608C3.86573 17.8507 4.58627 18.0002 5.31454 18H13.1563C13.8837 18.0001 14.6032 17.8509 15.2706 17.5616C15.9379 17.2723 16.5387 16.8491 17.0357 16.3182C17.5328 15.7872 17.9156 15.1599 18.1603 14.475C18.4051 13.7901 18.5066 13.0622 18.4586 12.3365L17.6298 0H4.18821ZM4.18821 1.06257H1.8293L1.07487 12.4002C1.03557 12.9812 1.11604 13.564 1.3113 14.1125C1.50656 14.661 1.81244 15.1636 2.20997 15.589C2.60749 16.0144 3.08819 16.3536 3.62224 16.5856C4.15628 16.8175 4.73229 16.9373 5.31454 16.9374H13.1563C13.7395 16.9388 14.3167 16.8201 14.852 16.5888C15.3873 16.3575 15.8692 16.0185 16.2679 15.5929C16.6666 15.1673 16.9734 14.6642 17.1693 14.115C17.3652 13.5657 17.446 12.982 17.4066 12.4002L16.6416 1.06257H14.2827V1.732C14.2827 2.39481 14.1521 3.05113 13.8985 3.66348C13.6448 4.27584 13.273 4.83224 12.8044 5.30092C12.3357 5.7696 11.7793 6.14138 11.1669 6.39502C10.5546 6.64867 9.89825 6.77922 9.23544 6.77922C8.57263 6.77922 7.91631 6.64867 7.30395 6.39502C6.69159 6.14138 6.13519 5.7696 5.66651 5.30092C5.19783 4.83224 4.82606 4.27584 4.57241 3.66348C4.31876 3.05113 4.18821 2.39481 4.18821 1.732V1.06257ZM13.2201 1.06257H5.25079V1.732C5.25079 2.78879 5.6706 3.8023 6.41786 4.54957C7.16513 5.29684 8.17864 5.71665 9.23544 5.71665C10.2922 5.71665 11.3057 5.29684 12.053 4.54957C12.8003 3.8023 13.2201 2.78879 13.2201 1.732V1.06257Z" fill="black"/>
</svg>
