<svg width="20" height="20" viewBox="0 0 20 20" fill="none" xmlns="http://www.w3.org/2000/svg">
<path d="M7.5 4.25C7.5 3.84 7.84 3.5 8.25 3.5H14.25C14.4489 3.5 14.6397 3.57902 14.7803 3.71967C14.921 3.86032 15 4.05109 15 4.25C15 4.44891 14.921 4.63968 14.7803 4.78033C14.6397 4.92098 14.4489 5 14.25 5H11.91L9.63 15H11.75C11.9489 15 12.1397 15.079 12.2803 15.2197C12.421 15.3603 12.5 15.5511 12.5 15.75C12.5 15.9489 12.421 16.1397 12.2803 16.2803C12.1397 16.421 11.9489 16.5 11.75 16.5H5.75C5.55109 16.5 5.36032 16.421 5.21967 16.2803C5.07902 16.1397 5 15.9489 5 15.75C5 15.5511 5.07902 15.3603 5.21967 15.2197C5.36032 15.079 5.55109 15 5.75 15H8.09L10.37 5H8.25C8.05109 5 7.86032 4.92098 7.71967 4.78033C7.57902 4.63968 7.5 4.44891 7.5 4.25Z" fill="black"/>
</svg>
