<svg width="20" height="20" viewBox="0 0 20 20" fill="none" xmlns="http://www.w3.org/2000/svg">
<path d="M5.70199 4.253C5.75587 4.15476 5.83516 4.07282 5.93156 4.01573C6.02797 3.95865 6.13795 3.92853 6.24999 3.92853C6.36203 3.92853 6.47201 3.95865 6.56842 4.01573C6.66483 4.07282 6.74412 4.15476 6.79799 4.253L6.99399 4.611C7.20099 4.989 7.51099 5.299 7.88899 5.506L8.24699 5.702C8.34547 5.7558 8.42765 5.83511 8.48491 5.93163C8.54216 6.02814 8.57237 6.13828 8.57237 6.2505C8.57237 6.36272 8.54216 6.47286 8.48491 6.56937C8.42765 6.66589 8.34547 6.7452 8.24699 6.799L7.88899 6.995C7.5113 7.20128 7.20069 7.51154 6.99399 7.889L6.79799 8.248C6.74412 8.34624 6.66483 8.42818 6.56842 8.48527C6.47201 8.54235 6.36203 8.57247 6.24999 8.57247C6.13795 8.57247 6.02797 8.54235 5.93156 8.48527C5.83516 8.42818 5.75587 8.34624 5.70199 8.248L5.50599 7.889C5.29929 7.51154 4.98868 7.20128 4.61099 6.995L4.25299 6.799C4.15451 6.7452 4.07233 6.66589 4.01508 6.56937C3.95782 6.47286 3.92761 6.36272 3.92761 6.2505C3.92761 6.13828 3.95782 6.02814 4.01508 5.93163C4.07233 5.83511 4.15451 5.7558 4.25299 5.702L4.61099 5.506C4.98882 5.29945 5.29945 4.98883 5.50599 4.611L5.70199 4.253Z" fill="black"/>
<path fill-rule="evenodd" clip-rule="evenodd" d="M12.948 7.89C12.768 6.723 11.096 6.7 10.884 7.861L10.854 8.025C10.7146 8.78698 10.3431 9.48724 9.79029 10.0298C9.23748 10.5725 8.53042 10.9309 7.76598 11.056C6.61598 11.245 6.59298 12.889 7.73598 13.11L7.84098 13.13C8.59054 13.2748 9.27959 13.6407 9.81942 14.1806C10.3592 14.7204 10.7251 15.4094 10.87 16.159L10.902 16.324C11.135 17.532 12.865 17.532 13.098 16.324L13.123 16.195C13.2697 15.4367 13.6419 14.7403 14.1909 14.197C14.7399 13.6537 15.4402 13.2888 16.2 13.15C17.384 12.934 17.32 11.222 16.129 11.043C15.3325 10.9235 14.5949 10.5533 14.0231 9.98616C13.4513 9.41902 13.075 8.68444 12.949 7.889L12.948 7.89ZM12.004 14.777C12.512 13.6221 13.4125 12.6843 14.546 12.13C13.3954 11.6194 12.4639 10.7162 11.918 9.582C11.4024 10.6797 10.5236 11.5657 9.42998 12.09C10.583 12.6473 11.4967 13.6012 12.004 14.777Z" fill="black"/>
</svg>
