<svg width="20" height="20" viewBox="0 0 20 20" fill="none" xmlns="http://www.w3.org/2000/svg">
<path fill-rule="evenodd" clip-rule="evenodd" d="M7 3C6.17 3 5.5 3.67 5.5 4.5V14.96C5.5 15.81 6.19 16.5 7.04 16.5H11.5C12.3484 16.5005 13.175 16.2311 13.8603 15.731C14.5456 15.2308 15.0541 14.5257 15.3123 13.7176C15.5706 12.9094 15.5652 12.0401 15.2969 11.2352C15.0287 10.4304 14.5114 9.73162 13.82 9.24C14.2269 8.63795 14.4622 7.93642 14.5005 7.21075C14.5388 6.48509 14.3786 5.7627 14.0373 5.12117C13.696 4.47964 13.1864 3.94321 12.5631 3.5695C11.9399 3.19579 11.2267 2.9989 10.5 3H7ZM10.5 8.5C10.8978 8.5 11.2794 8.34196 11.5607 8.06066C11.842 7.77936 12 7.39782 12 7C12 6.60218 11.842 6.22064 11.5607 5.93934C11.2794 5.65803 10.8978 5.5 10.5 5.5H8V8.5H10.5ZM8 11V14H11.5C11.8978 14 12.2794 13.842 12.5607 13.5607C12.842 13.2794 13 12.8978 13 12.5C13 12.1022 12.842 11.7206 12.5607 11.4393C12.2794 11.158 11.8978 11 11.5 11H8Z" fill="black"/>
</svg>
