<svg width="20" height="20" viewBox="0 0 20 20" fill="none" xmlns="http://www.w3.org/2000/svg">
<path fill-rule="evenodd" clip-rule="evenodd" d="M15.842 4.175C15.4942 3.8271 15.0812 3.55113 14.6267 3.36284C14.1722 3.17455 13.685 3.07764 13.193 3.07764C12.7011 3.07764 12.2139 3.17455 11.7594 3.36284C11.3049 3.55113 10.8919 3.8271 10.544 4.175L8.42803 6.292C8.07901 6.64105 7.80234 7.05558 7.61388 7.5118C7.42543 7.96802 7.32889 8.45696 7.32982 8.95058C7.33075 9.44419 7.42912 9.93276 7.6193 10.3883C7.80947 10.8438 8.0877 11.2573 8.43803 11.605L8.77603 11.941C8.84546 12.0124 8.92841 12.0692 9.02003 12.1082C9.11166 12.1471 9.21012 12.1675 9.30969 12.168C9.40926 12.1685 9.50793 12.1492 9.59996 12.1112C9.69198 12.0732 9.77552 12.0172 9.84569 11.9466C9.91586 11.876 9.97127 11.7921 10.0087 11.6998C10.0461 11.6075 10.0647 11.5087 10.0636 11.4091C10.0624 11.3096 10.0414 11.2113 10.0018 11.1199C9.96223 11.0285 9.90486 10.946 9.83303 10.877L9.49403 10.54C9.28402 10.3313 9.11726 10.0832 9.00331 9.80995C8.88937 9.53668 8.83047 9.24361 8.83001 8.94754C8.82954 8.65147 8.88752 8.35821 9.00061 8.08459C9.1137 7.81097 9.27968 7.56235 9.48903 7.353L11.605 5.236C12.0267 4.81523 12.5983 4.57922 13.194 4.57988C13.7897 4.58053 14.3608 4.81781 14.7815 5.2395C15.2023 5.66119 15.4383 6.23277 15.4377 6.82848C15.437 7.42418 15.1997 7.99523 14.778 8.416L13.726 9.463C13.5849 9.6033 13.5054 9.7939 13.5048 9.99288C13.5042 10.1919 13.5827 10.3829 13.723 10.524C13.8633 10.6651 14.0539 10.7447 14.2529 10.7452C14.4519 10.7458 14.6429 10.6673 14.784 10.527L15.836 9.48C16.1854 9.13241 16.4627 8.71931 16.6521 8.26436C16.8415 7.80941 16.9393 7.32155 16.9399 6.82875C16.9405 6.33594 16.8438 5.84786 16.6554 5.39249C16.467 4.93711 16.1906 4.52338 15.842 4.175ZM4.17803 15.845C4.52627 16.1933 4.93971 16.4696 5.39474 16.6582C5.84978 16.8467 6.33749 16.9437 6.83003 16.9437C7.32257 16.9437 7.81029 16.8467 8.26532 16.6582C8.72036 16.4696 9.1338 16.1933 9.48203 15.845L11.603 13.724C12.3062 13.0208 12.7012 12.067 12.7012 11.0725C12.7012 10.078 12.3062 9.12425 11.603 8.421L11.241 8.059C11.0989 7.92652 10.9108 7.8544 10.7165 7.85783C10.5222 7.86125 10.3368 7.93997 10.1994 8.07738C10.062 8.21479 9.98329 8.40018 9.97986 8.59448C9.97643 8.78878 10.0486 8.97683 10.181 9.119L10.543 9.481C10.752 9.68993 10.9177 9.93797 11.0308 10.211C11.1439 10.4839 11.2021 10.7765 11.2021 11.072C11.2021 11.3675 11.1439 11.6601 11.0308 11.933C10.9177 12.206 10.752 12.4541 10.543 12.663L8.42103 14.785C8.2121 14.9939 7.96406 15.1597 7.69108 15.2727C7.41809 15.3858 7.12551 15.444 6.83003 15.444C6.53456 15.444 6.24197 15.3858 5.96899 15.2727C5.69601 15.1597 5.44797 14.9939 5.23903 14.785C5.0301 14.5761 4.86437 14.328 4.75129 14.055C4.63822 13.7821 4.58002 13.4895 4.58002 13.194C4.58002 12.8985 4.63822 12.6059 4.75129 12.333C4.86437 12.06 5.0301 11.8119 5.23903 11.603L6.30903 10.533C6.4496 10.3922 6.52846 10.2013 6.52827 10.0023C6.52809 9.80332 6.44886 9.61256 6.30803 9.472C6.1672 9.33144 5.9763 9.25257 5.77733 9.25276C5.57835 9.25295 5.3876 9.33217 5.24703 9.473L4.17803 10.542C3.47486 11.2452 3.07983 12.199 3.07983 13.1935C3.07983 14.188 3.47486 15.1418 4.17803 15.845Z" fill="black"/>
</svg>
