<svg width="12" height="12" viewBox="0 0 12 12" fill="none" xmlns="http://www.w3.org/2000/svg">
<path d="M0 0.75C0 0.551088 0.0790175 0.360322 0.21967 0.21967C0.360322 0.0790175 0.551088 0 0.75 0H11.25C11.4489 0 11.6397 0.0790175 11.7803 0.21967C11.921 0.360322 12 0.551088 12 0.75V2.25C12 2.44891 11.921 2.63968 11.7803 2.78033C11.6397 2.92098 11.4489 3 11.25 3C11.0511 3 10.8603 2.92098 10.7197 2.78033C10.579 2.63968 10.5 2.44891 10.5 2.25V1.5H7V10.25H8.25C8.44891 10.25 8.63968 10.329 8.78033 10.4697C8.92098 10.6103 9 10.8011 9 11C9 11.1989 8.92098 11.3897 8.78033 11.5303C8.63968 11.671 8.44891 11.75 8.25 11.75H3.75C3.55109 11.75 3.36032 11.671 3.21967 11.5303C3.07902 11.3897 3 11.1989 3 11C3 10.8011 3.07902 10.6103 3.21967 10.4697C3.36032 10.329 3.55109 10.25 3.75 10.25H5V1.5H1.5V2.25C1.5 2.44891 1.42098 2.63968 1.28033 2.78033C1.13968 2.92098 0.948912 3 0.75 3C0.551088 3 0.360322 2.92098 0.21967 2.78033C0.0790175 2.63968 0 2.44891 0 2.25V0.75Z" fill="black"/>
</svg>
