<svg width="16" height="16" viewBox="0 0 16 16" fill="none" xmlns="http://www.w3.org/2000/svg">
<path fill-rule="evenodd" clip-rule="evenodd" d="M5.25 1.5C4.25544 1.5 3.30161 1.89509 2.59835 2.59835C1.89509 3.30161 1.5 4.25544 1.5 5.25V10.75C1.5 11.7446 1.89509 12.6984 2.59835 13.4017C3.30161 14.1049 4.25544 14.5 5.25 14.5H10.75C11.7446 14.5 12.6984 14.1049 13.4017 13.4017C14.1049 12.6984 14.5 11.7446 14.5 10.75V5.25C14.5 4.25544 14.1049 3.30161 13.4017 2.59835C12.6984 1.89509 11.7446 1.5 10.75 1.5H5.25ZM3 5.25C3 4.65326 3.23705 4.08097 3.65901 3.65901C4.08097 3.23705 4.65326 3 5.25 3H8.5V6H3V5.25ZM10 3H10.75C11.3467 3 11.919 3.23705 12.341 3.65901C12.7629 4.08097 13 4.65326 13 5.25V9H10V3ZM10 10.5V13H10.75C11.3467 13 11.919 12.7629 12.341 12.341C12.7629 11.919 13 11.3467 13 10.75V10.5H10ZM8.5 7.5V13H5.25C4.65326 13 4.08097 12.7629 3.65901 12.341C3.23705 11.919 3 11.3467 3 10.75V7.5H8.5Z" fill="#0094D5"/>
</svg>
