<svg width="20" height="20" viewBox="0 0 20 20" fill="none" xmlns="http://www.w3.org/2000/svg">
<path d="M10.75 4.25C10.75 4.05109 10.671 3.86032 10.5303 3.71967C10.3896 3.57902 10.1989 3.5 9.99997 3.5C9.80106 3.5 9.61029 3.57902 9.46964 3.71967C9.32899 3.86032 9.24997 4.05109 9.24997 4.25V10.94L7.52997 9.22C7.38779 9.08752 7.19975 9.0154 7.00545 9.01882C6.81114 9.02225 6.62576 9.10097 6.48835 9.23838C6.35093 9.37579 6.27222 9.56118 6.26879 9.75548C6.26537 9.94978 6.33749 10.1378 6.46997 10.28L9.46997 13.28C9.61059 13.4205 9.80122 13.4993 9.99997 13.4993C10.1987 13.4993 10.3893 13.4205 10.53 13.28L13.53 10.28C13.6037 10.2113 13.6628 10.1285 13.7037 10.0365C13.7447 9.94454 13.7668 9.84522 13.7686 9.74452C13.7703 9.64382 13.7518 9.54379 13.7141 9.4504C13.6764 9.35701 13.6202 9.27218 13.549 9.20096C13.4778 9.12974 13.393 9.0736 13.2996 9.03588C13.2062 8.99816 13.1061 8.97963 13.0054 8.98141C12.9047 8.98318 12.8054 9.00523 12.7134 9.04622C12.6214 9.08721 12.5386 9.14631 12.47 9.22L10.75 10.94V4.25Z" fill="black"/>
<path d="M16.5 13.75C16.5 13.5511 16.421 13.3603 16.2803 13.2197C16.1397 13.079 15.9489 13 15.75 13C15.5511 13 15.3603 13.079 15.2197 13.2197C15.079 13.3603 15 13.5511 15 13.75V14.55C15 14.7489 14.921 14.9397 14.7803 15.0803C14.6397 15.221 14.4489 15.3 14.25 15.3H5.75C5.55109 15.3 5.36032 15.221 5.21967 15.0803C5.07902 14.9397 5 14.7489 5 14.55V13.75C5 13.5511 4.92098 13.3603 4.78033 13.2197C4.63968 13.079 4.44891 13 4.25 13C4.05109 13 3.86032 13.079 3.71967 13.2197C3.57902 13.3603 3.5 13.5511 3.5 13.75V14.55C3.5 15.1467 3.73705 15.719 4.15901 16.141C4.58097 16.5629 5.15326 16.8 5.75 16.8H14.25C14.8467 16.8 15.419 16.5629 15.841 16.141C16.2629 15.719 16.5 15.1467 16.5 14.55V13.75Z" fill="black"/>
</svg>
